<svg width="16" height="16" viewBox="0 0 16 16" fill="none" xmlns="http://www.w3.org/2000/svg">
<path d="M13.3281 4.66683H12.5221C12.6199 4.34268 12.6669 4.00536 12.6615 3.66683C12.6615 2.38016 11.6148 1.3335 10.3281 1.3335C9.24679 1.3335 8.52479 2.3215 8.05879 3.39016C7.59946 2.38016 6.84079 1.3335 5.66146 1.3335C4.37479 1.3335 3.32812 2.38016 3.32812 3.66683C3.32812 4.06416 3.38079 4.39283 3.46746 4.66683H2.66146C1.92612 4.66683 1.32812 5.26483 1.32812 6.00016V7.3335C1.32812 8.06883 1.92612 8.66683 2.66146 8.66683V13.3335C2.66146 14.0688 3.25946 14.6668 3.99479 14.6668H11.9948C12.7301 14.6668 13.3281 14.0688 13.3281 13.3335V8.66683C14.0635 8.66683 14.6615 8.06883 14.6615 7.3335V6.00016C14.6615 5.26483 14.0635 4.66683 13.3281 4.66683ZM10.3281 2.66683C10.8795 2.66683 11.3281 3.1155 11.3281 3.66683C11.3281 4.66683 10.9108 4.66683 10.6615 4.66683H9.00946C9.35012 3.61616 9.84479 2.66683 10.3281 2.66683ZM4.66146 3.66683C4.66146 3.1155 5.11012 2.66683 5.66146 2.66683C6.25346 2.66683 6.80412 3.6835 7.12679 4.66683H5.32812C5.07879 4.66683 4.66146 4.66683 4.66146 3.66683ZM2.66146 6.00016H7.32812V7.3335H2.66146V6.00016ZM3.99479 13.3335V8.66683H7.32812V13.3335H3.99479ZM11.9948 13.3335H8.66146V8.66683H11.9948V13.3335ZM8.66146 7.3335V6.05683L8.67279 6.00016H13.3281L13.3288 7.3335H8.66146Z" fill="#2A2826"/>
</svg>
