<svg width="16" height="16" viewBox="0 0 16 16" fill="none" xmlns="http://www.w3.org/2000/svg">
<path d="M14.3963 7.48L11.3297 5.01333V3.33333C11.346 2.99663 11.2281 2.66719 11.0019 2.41724C10.7757 2.1673 10.4597 2.01725 10.123 2H2.52299C2.1887 2.02064 1.87601 2.17216 1.65264 2.42172C1.42928 2.67129 1.31324 2.99881 1.32966 3.33333V10C1.32347 10.2647 1.39625 10.5253 1.53873 10.7485C1.68121 10.9717 1.88692 11.1475 2.12966 11.2533C2.00688 11.5537 1.95903 11.8794 1.99023 12.2025C2.02144 12.5254 2.13076 12.8359 2.30877 13.1072C2.48678 13.3785 2.72813 13.6025 3.01199 13.7597C3.29585 13.9169 3.6137 14.0027 3.93812 14.0096C4.26253 14.0166 4.58377 13.9445 4.8741 13.7996C5.16444 13.6547 5.41516 13.4413 5.60462 13.1779C5.79409 12.9144 5.91662 12.6089 5.96163 12.2875C6.00664 11.9662 5.97279 11.6387 5.86299 11.3333H10.103C9.99335 11.6354 9.95812 11.9595 10.0003 12.2781C10.0424 12.5967 10.1608 12.9004 10.3452 13.1636C10.5297 13.4267 10.7748 13.6416 11.0599 13.7899C11.345 13.9382 11.6616 14.0157 11.983 14.0157C12.3044 14.0157 12.621 13.9382 12.9061 13.7899C13.1912 13.6416 13.4363 13.4267 13.6208 13.1636C13.8052 12.9004 13.9235 12.5967 13.9657 12.2781C14.0079 11.9595 13.9726 11.6354 13.863 11.3333H13.9963C14.1731 11.3333 14.3427 11.2631 14.4677 11.1381C14.5928 11.013 14.663 10.8435 14.663 10.6667V8C14.661 7.89876 14.6359 7.79932 14.5897 7.70922C14.5435 7.61912 14.4773 7.54073 14.3963 7.48ZM13.3297 8.32V10H11.3297V6.72L13.3297 8.32ZM4.66299 12C4.66299 12.1319 4.62389 12.2607 4.55064 12.3704C4.47738 12.48 4.37326 12.5655 4.25145 12.6159C4.12963 12.6664 3.99558 12.6796 3.86626 12.6539C3.73694 12.6281 3.61815 12.5646 3.52492 12.4714C3.43168 12.3782 3.36819 12.2594 3.34247 12.1301C3.31674 12.0007 3.32995 11.8667 3.3804 11.7449C3.43086 11.6231 3.51631 11.5189 3.62594 11.4457C3.73558 11.3724 3.86447 11.3333 3.99632 11.3333C4.17314 11.3333 4.3427 11.4036 4.46773 11.5286C4.59275 11.6536 4.66299 11.8232 4.66299 12ZM7.99632 10H2.66299V3.33333H9.99632V10H7.99632ZM12.663 12C12.663 12.1319 12.6239 12.2607 12.5506 12.3704C12.4774 12.48 12.3733 12.5655 12.2514 12.6159C12.1296 12.6664 11.9956 12.6796 11.8663 12.6539C11.7369 12.6281 11.6182 12.5646 11.5249 12.4714C11.4317 12.3782 11.3682 12.2594 11.3425 12.1301C11.3167 12.0007 11.3299 11.8667 11.3804 11.7449C11.4309 11.6231 11.5163 11.5189 11.6259 11.4457C11.7356 11.3724 11.8645 11.3333 11.9963 11.3333C12.1731 11.3333 12.3427 11.4036 12.4677 11.5286C12.5928 11.6536 12.663 11.8232 12.663 12Z" fill="#2A2826"/>
</svg>
