<svg width="17" height="21" viewBox="0 0 17 21" fill="none" xmlns="http://www.w3.org/2000/svg">
<path d="M15.9315 5.17505H12.9315V4.17505C12.9315 3.11418 12.5101 2.09677 11.7599 1.34662C11.0098 0.596476 9.99238 0.175049 8.93152 0.175049C7.87065 0.175049 6.85324 0.596476 6.10309 1.34662C5.35295 2.09677 4.93152 3.11418 4.93152 4.17505V5.17505H1.93152C1.6663 5.17505 1.41195 5.28041 1.22441 5.46794C1.03688 5.65548 0.931519 5.90983 0.931519 6.17505V17.175C0.931519 17.9707 1.24759 18.7338 1.8102 19.2964C2.37281 19.859 3.13587 20.175 3.93152 20.175H13.9315C14.7272 20.175 15.4902 19.859 16.0528 19.2964C16.6154 18.7338 16.9315 17.9707 16.9315 17.175V6.17505C16.9315 5.90983 16.8262 5.65548 16.6386 5.46794C16.4511 5.28041 16.1967 5.17505 15.9315 5.17505ZM6.93152 4.17505C6.93152 3.64462 7.14223 3.13591 7.51731 2.76084C7.89238 2.38576 8.40109 2.17505 8.93152 2.17505C9.46195 2.17505 9.97066 2.38576 10.3457 2.76084C10.7208 3.13591 10.9315 3.64462 10.9315 4.17505V5.17505H6.93152V4.17505ZM14.9315 17.175C14.9315 17.4403 14.8262 17.6946 14.6386 17.8822C14.4511 18.0697 14.1967 18.175 13.9315 18.175H3.93152C3.6663 18.175 3.41195 18.0697 3.22441 17.8822C3.03688 17.6946 2.93152 17.4403 2.93152 17.175V7.17505H4.93152V8.17505C4.93152 8.44027 5.03688 8.69462 5.22441 8.88216C5.41195 9.06969 5.6663 9.17505 5.93152 9.17505C6.19673 9.17505 6.45109 9.06969 6.63863 8.88216C6.82616 8.69462 6.93152 8.44027 6.93152 8.17505V7.17505H10.9315V8.17505C10.9315 8.44027 11.0369 8.69462 11.2244 8.88216C11.4119 9.06969 11.6663 9.17505 11.9315 9.17505C12.1967 9.17505 12.4511 9.06969 12.6386 8.88216C12.8262 8.69462 12.9315 8.44027 12.9315 8.17505V7.17505H14.9315V17.175Z" fill="#2A2826"/>
</svg>
