<svg width="50" height="50" viewBox="0 0 50 50" fill="none" xmlns="http://www.w3.org/2000/svg">
<path d="M40.625 1.5625H4.6875C4.06647 1.56435 3.4714 1.81188 3.03227 2.25102C2.59313 2.69015 2.3456 3.28522 2.34375 3.90625V39.8438C2.3456 40.4648 2.59313 41.0598 3.03227 41.499C3.4714 41.9381 4.06647 42.1856 4.6875 42.1875H19.5312V40.625H4.6875C4.4803 40.625 4.28159 40.5427 4.13507 40.3962C3.98856 40.2497 3.90625 40.0509 3.90625 39.8438V12.5H17.1875V16.4062C17.1873 16.5548 17.2294 16.7004 17.309 16.8259C17.3885 16.9514 17.5022 17.0516 17.6367 17.1147C17.7712 17.1779 17.9209 17.2013 18.0683 17.1824C18.2157 17.1635 18.3546 17.1029 18.4688 17.0078L22.6562 13.5156L26.8438 17.0078C26.9843 17.1243 27.1612 17.1879 27.3438 17.1875C27.4569 17.1875 27.5687 17.1636 27.6719 17.1172C27.8075 17.0544 27.9223 16.9541 28.0026 16.8281C28.0829 16.7021 28.1254 16.5557 28.125 16.4062V12.5H41.4062V35.9375H42.9688V3.90625C42.9669 3.28522 42.7194 2.69015 42.2802 2.25102C41.8411 1.81188 41.246 1.56435 40.625 1.5625ZM17.1875 10.9375H3.90625V3.90625C3.90625 3.69905 3.98856 3.50034 4.13507 3.35382C4.28159 3.20731 4.4803 3.125 4.6875 3.125H17.1875V10.9375ZM26.5625 14.7422L23.1562 11.8984C23.0155 11.7822 22.8387 11.7186 22.6562 11.7186C22.4738 11.7186 22.297 11.7822 22.1562 11.8984L18.75 14.7422V3.125H26.5625V14.7422ZM41.4062 10.9375H28.125V3.125H40.625C40.8322 3.125 41.0309 3.20731 41.1774 3.35382C41.3239 3.50034 41.4062 3.69905 41.4062 3.90625V10.9375Z" fill="#CB927A"/>
<path d="M14.8438 25V23.4375H10.9375C10.7303 23.4375 10.5316 23.5198 10.3851 23.6663C10.2386 23.8128 10.1562 24.0115 10.1562 24.2188V31.25H11.7188V28.125H14.0625V26.5625H11.7188V25H14.8438Z" fill="#CB927A"/>
<path d="M28.125 25V23.4375H24.2188C24.0115 23.4375 23.8128 23.5198 23.6663 23.6663C23.5198 23.8128 23.4375 24.0115 23.4375 24.2188V30.4688C23.4375 30.676 23.5198 30.8747 23.6663 31.0212C23.8128 31.1677 24.0115 31.25 24.2188 31.25H28.125V29.6875H25V28.125H27.3438V26.5625H25V25H28.125Z" fill="#CB927A"/>
<path d="M34.375 25V23.4375H30.4688C30.2615 23.4375 30.0628 23.5198 29.9163 23.6663C29.7698 23.8128 29.6875 24.0115 29.6875 24.2188V30.4688C29.6875 30.676 29.7698 30.8747 29.9163 31.0212C30.0628 31.1677 30.2615 31.25 30.4688 31.25H34.375V29.6875H31.25V28.125H33.5938V26.5625H31.25V25H34.375Z" fill="#CB927A"/>
<path d="M21.875 25.7812C21.8731 25.1602 21.6256 24.5652 21.1865 24.126C20.7473 23.6869 20.1523 23.4394 19.5312 23.4375H17.1875C16.9803 23.4375 16.7816 23.5198 16.6351 23.6663C16.4886 23.8128 16.4062 24.0115 16.4062 24.2188V31.25H17.9688V28.125H19.5312C19.7385 28.125 19.9372 28.2073 20.0837 28.3538C20.2302 28.5003 20.3125 28.699 20.3125 28.9062V31.25H21.875V28.9062C21.8735 28.3277 21.6562 27.7706 21.2656 27.3438C21.6562 26.9169 21.8735 26.3598 21.875 25.7812ZM19.5312 26.5625H17.9688V25H19.5312C19.7385 25 19.9372 25.0823 20.0837 25.2288C20.2302 25.3753 20.3125 25.574 20.3125 25.7812C20.3125 25.9885 20.2302 26.1872 20.0837 26.3337C19.9372 26.4802 19.7385 26.5625 19.5312 26.5625Z" fill="#CB927A"/>
<path d="M47.4297 40.8516L44.3047 37.7266C44.1557 37.5827 43.9571 37.5015 43.75 37.5H39.8438V35.1562C39.8438 34.949 39.7614 34.7503 39.6149 34.6038C39.4684 34.4573 39.2697 34.375 39.0625 34.375H28.125C27.9178 34.375 27.7191 34.4573 27.5726 34.6038C27.4261 34.7503 27.3438 34.949 27.3438 35.1562V46.0937C27.3438 46.3009 27.4261 46.4997 27.5726 46.6462C27.7191 46.7927 27.9178 46.875 28.125 46.875H29.8281C29.9881 47.3317 30.286 47.7274 30.6807 48.0073C31.0754 48.2873 31.5474 48.4377 32.0312 48.4377C32.5151 48.4377 32.9871 48.2873 33.3818 48.0073C33.7765 47.7274 34.0744 47.3317 34.2344 46.875H40.7656C40.9256 47.3317 41.2235 47.7274 41.6182 48.0073C42.0129 48.2873 42.4849 48.4377 42.9688 48.4377C43.4526 48.4377 43.9246 48.2873 44.3193 48.0073C44.714 47.7274 45.0119 47.3317 45.1719 46.875H46.875C47.0822 46.875 47.2809 46.7927 47.4274 46.6462C47.5739 46.4997 47.6562 46.3009 47.6562 46.0937V41.4062C47.6547 41.1991 47.5736 41.0005 47.4297 40.8516ZM32.0312 46.875C31.8767 46.875 31.7257 46.8292 31.5972 46.7433C31.4687 46.6575 31.3686 46.5355 31.3095 46.3927C31.2503 46.25 31.2349 46.0929 31.265 45.9413C31.2952 45.7898 31.3696 45.6506 31.4788 45.5413C31.5881 45.4321 31.7273 45.3577 31.8788 45.3275C32.0304 45.2974 32.1875 45.3128 32.3302 45.372C32.473 45.4311 32.595 45.5312 32.6808 45.6597C32.7667 45.7882 32.8125 45.9392 32.8125 46.0937C32.8125 46.3009 32.7302 46.4997 32.5837 46.6462C32.4372 46.7927 32.2385 46.875 32.0312 46.875ZM38.2812 45.3125H34.2344C34.0744 44.8558 33.7765 44.4601 33.3818 44.1802C32.9871 43.9002 32.5151 43.7498 32.0312 43.7498C31.5474 43.7498 31.0754 43.9002 30.6807 44.1802C30.286 44.4601 29.9881 44.8558 29.8281 45.3125H28.9062V35.9375H38.2812V45.3125ZM42.9688 46.875C42.8142 46.875 42.6632 46.8292 42.5347 46.7433C42.4062 46.6575 42.3061 46.5355 42.247 46.3927C42.1878 46.25 42.1724 46.0929 42.2025 45.9413C42.2327 45.7898 42.3071 45.6506 42.4163 45.5413C42.5256 45.4321 42.6648 45.3577 42.8163 45.3275C42.9679 45.2974 43.125 45.3128 43.2677 45.372C43.4105 45.4311 43.5325 45.5312 43.6183 45.6597C43.7042 45.7882 43.75 45.9392 43.75 46.0937C43.75 46.3009 43.6677 46.4997 43.5212 46.6462C43.3747 46.7927 43.176 46.875 42.9688 46.875ZM46.0938 45.3125H45.1719C45.0119 44.8558 44.714 44.4601 44.3193 44.1802C43.9246 43.9002 43.4526 43.7498 42.9688 43.7498C42.4849 43.7498 42.0129 43.9002 41.6182 44.1802C41.2235 44.4601 40.9256 44.8558 40.7656 45.3125H39.8438V39.0625H43.4297L46.0938 41.7266V45.3125Z" fill="#CB927A"/>
<path d="M22.6562 43.75H25.7812V45.3125H22.6562V43.75Z" fill="#CB927A"/>
<path d="M21.0938 39.8438H25.7812V41.4062H21.0938V39.8438Z" fill="#CB927A"/>
<path d="M19.5312 35.9375H25.7812V37.5H19.5312V35.9375Z" fill="#CB927A"/>
</svg>
