<svg width="21" height="19" viewBox="0 0 21 19" fill="none" xmlns="http://www.w3.org/2000/svg">
<path d="M11.0315 15.725L10.9315 15.825L10.8215 15.725C6.07152 11.415 2.93152 8.56505 2.93152 5.67505C2.93152 3.67505 4.43152 2.17505 6.43152 2.17505C7.97152 2.17505 9.47152 3.17505 10.0015 4.53505H11.8615C12.3915 3.17505 13.8915 2.17505 15.4315 2.17505C17.4315 2.17505 18.9315 3.67505 18.9315 5.67505C18.9315 8.56505 15.7915 11.415 11.0315 15.725ZM15.4315 0.175049C13.6915 0.175049 12.0215 0.985049 10.9315 2.25505C9.84152 0.985049 8.17152 0.175049 6.43152 0.175049C3.35152 0.175049 0.931519 2.58505 0.931519 5.67505C0.931519 9.44505 4.33152 12.535 9.48152 17.205L10.9315 18.525L12.3815 17.205C17.5315 12.535 20.9315 9.44505 20.9315 5.67505C20.9315 2.58505 18.5115 0.175049 15.4315 0.175049Z" fill="#2A2826"/>
</svg>
