<svg width="20" height="19" viewBox="0 0 20 19" fill="none" xmlns="http://www.w3.org/2000/svg">
<path d="M10.1 15.6999L10 15.7999L9.89 15.6999C5.14 11.3899 2 8.5399 2 5.6499C2 3.6499 3.5 2.1499 5.5 2.1499C7.04 2.1499 8.54 3.1499 9.07 4.5099H10.93C11.46 3.1499 12.96 2.1499 14.5 2.1499C16.5 2.1499 18 3.6499 18 5.6499C18 8.5399 14.86 11.3899 10.1 15.6999ZM14.5 0.149902C12.76 0.149902 11.09 0.959902 10 2.2299C8.91 0.959902 7.24 0.149902 5.5 0.149902C2.42 0.149902 0 2.5599 0 5.6499C0 9.4199 3.4 12.5099 8.55 17.1799L10 18.4999L11.45 17.1799C16.6 12.5099 20 9.4199 20 5.6499C20 2.5599 17.58 0.149902 14.5 0.149902Z" fill="#CB927A"/>
</svg>
