<svg width="127" height="37" viewBox="0 0 127 37" fill="none" xmlns="http://www.w3.org/2000/svg">
<path fill-rule="evenodd" clip-rule="evenodd" d="M16.4771 0C7.23039 0.863772 0 8.80615 0 18.4992C0 28.217 7.23039 36.1594 16.4771 36.9984V0Z" fill="black"/>
<path fill-rule="evenodd" clip-rule="evenodd" d="M36.1021 20.1773V37C27.4062 36.2104 20.4888 29.1071 19.7199 20.1773H36.1021Z" fill="black"/>
<path fill-rule="evenodd" clip-rule="evenodd" d="M19.7921 16.8474V0C28.4641 0.814326 35.4055 7.91763 36.1744 16.8474H19.7921Z" fill="black"/>
<path d="M52.65 27V10.15H55V27H52.65ZM46.75 11.8V9.65H60.875V11.8H46.75ZM65.4041 27.25C64.2374 27.25 63.1874 26.975 62.2541 26.425C61.3208 25.875 60.5791 25.1333 60.0291 24.2C59.4791 23.25 59.2041 22.1917 59.2041 21.025C59.2041 19.875 59.4791 18.8417 60.0291 17.925C60.5791 16.9917 61.3208 16.25 62.2541 15.7C63.1874 15.15 64.2374 14.875 65.4041 14.875C66.5541 14.875 67.5958 15.15 68.5291 15.7C69.4791 16.2333 70.2291 16.9667 70.7791 17.9C71.3291 18.8333 71.6041 19.875 71.6041 21.025C71.6041 22.1917 71.3291 23.25 70.7791 24.2C70.2291 25.1333 69.4791 25.875 68.5291 26.425C67.5958 26.975 66.5541 27.25 65.4041 27.25ZM65.4041 25.075C66.1541 25.075 66.8208 24.9 67.4041 24.55C67.9874 24.2 68.4458 23.725 68.7791 23.125C69.1124 22.5083 69.2791 21.8083 69.2791 21.025C69.2791 20.2583 69.1041 19.575 68.7541 18.975C68.4208 18.375 67.9624 17.9083 67.3791 17.575C66.8124 17.225 66.1541 17.05 65.4041 17.05C64.6541 17.05 63.9874 17.225 63.4041 17.575C62.8208 17.9083 62.3624 18.375 62.0291 18.975C61.6958 19.575 61.5291 20.2583 61.5291 21.025C61.5291 21.8083 61.6958 22.5083 62.0291 23.125C62.3624 23.725 62.8208 24.2 63.4041 24.55C63.9874 24.9 64.6541 25.075 65.4041 25.075ZM74.1393 27V15.125H76.3893V27H74.1393ZM76.3893 20.225L75.5393 19.85C75.5393 18.3333 75.8893 17.125 76.5893 16.225C77.2893 15.325 78.2976 14.875 79.6143 14.875C80.2143 14.875 80.7559 14.9833 81.2393 15.2C81.7226 15.4 82.1726 15.7417 82.5893 16.225L81.1143 17.75C80.8643 17.4833 80.5893 17.2917 80.2893 17.175C79.9893 17.0583 79.6393 17 79.2393 17C78.4059 17 77.7226 17.2667 77.1893 17.8C76.6559 18.3333 76.3893 19.1417 76.3893 20.225ZM88.8328 27.25C87.7495 27.25 86.7661 26.9833 85.8828 26.45C84.9995 25.9 84.2995 25.1583 83.7828 24.225C83.2828 23.2917 83.0328 22.2417 83.0328 21.075C83.0328 19.9083 83.2828 18.8583 83.7828 17.925C84.2995 16.9917 84.9911 16.25 85.8578 15.7C86.7411 15.15 87.7328 14.875 88.8328 14.875C89.7328 14.875 90.5328 15.0667 91.2328 15.45C91.9495 15.8167 92.5245 16.3333 92.9578 17C93.3911 17.65 93.6328 18.4083 93.6828 19.275V22.85C93.6328 23.7 93.3911 24.4583 92.9578 25.125C92.5411 25.7917 91.9745 26.3167 91.2578 26.7C90.5578 27.0667 89.7495 27.25 88.8328 27.25ZM89.2078 25.125C90.3245 25.125 91.2245 24.75 91.9078 24C92.5911 23.2333 92.9328 22.2583 92.9328 21.075C92.9328 20.2583 92.7745 19.55 92.4578 18.95C92.1578 18.3333 91.7245 17.8583 91.1578 17.525C90.5911 17.175 89.9328 17 89.1828 17C88.4328 17 87.7661 17.175 87.1828 17.525C86.6161 17.875 86.1661 18.3583 85.8328 18.975C85.5161 19.575 85.3578 20.2667 85.3578 21.05C85.3578 21.85 85.5161 22.5583 85.8328 23.175C86.1661 23.775 86.6245 24.25 87.2078 24.6C87.7911 24.95 88.4578 25.125 89.2078 25.125ZM92.7828 27V23.8L93.2078 20.9L92.7828 18.025V15.125H95.0578V27H92.7828ZM103.359 27.25C102.259 27.25 101.275 26.9833 100.409 26.45C99.5419 25.9 98.8503 25.1583 98.3336 24.225C97.8336 23.2917 97.5836 22.2417 97.5836 21.075C97.5836 19.9083 97.8336 18.8583 98.3336 17.925C98.8503 16.9917 99.5419 16.25 100.409 15.7C101.275 15.15 102.259 14.875 103.359 14.875C104.242 14.875 105.042 15.0667 105.759 15.45C106.475 15.8167 107.05 16.3333 107.484 17C107.934 17.65 108.184 18.4083 108.234 19.275V22.85C108.184 23.7 107.942 24.4583 107.509 25.125C107.075 25.7917 106.5 26.3167 105.784 26.7C105.067 27.0667 104.259 27.25 103.359 27.25ZM103.734 25.125C104.484 25.125 105.134 24.95 105.684 24.6C106.25 24.25 106.692 23.775 107.009 23.175C107.325 22.5583 107.484 21.8583 107.484 21.075C107.484 20.2583 107.317 19.55 106.984 18.95C106.667 18.35 106.225 17.875 105.659 17.525C105.109 17.175 104.459 17 103.709 17C102.959 17 102.3 17.175 101.734 17.525C101.167 17.875 100.717 18.3583 100.384 18.975C100.067 19.575 99.9086 20.2667 99.9086 21.05C99.9086 21.85 100.067 22.5583 100.384 23.175C100.717 23.775 101.167 24.25 101.734 24.6C102.317 24.95 102.984 25.125 103.734 25.125ZM109.609 27H107.334V23.8L107.759 20.9L107.334 18.025V9.15H109.609V27ZM118.309 27.25C117.143 27.25 116.093 26.975 115.159 26.425C114.226 25.875 113.484 25.1333 112.934 24.2C112.384 23.25 112.109 22.1917 112.109 21.025C112.109 19.875 112.384 18.8417 112.934 17.925C113.484 16.9917 114.226 16.25 115.159 15.7C116.093 15.15 117.143 14.875 118.309 14.875C119.459 14.875 120.501 15.15 121.434 15.7C122.384 16.2333 123.134 16.9667 123.684 17.9C124.234 18.8333 124.509 19.875 124.509 21.025C124.509 22.1917 124.234 23.25 123.684 24.2C123.134 25.1333 122.384 25.875 121.434 26.425C120.501 26.975 119.459 27.25 118.309 27.25ZM118.309 25.075C119.059 25.075 119.726 24.9 120.309 24.55C120.893 24.2 121.351 23.725 121.684 23.125C122.018 22.5083 122.184 21.8083 122.184 21.025C122.184 20.2583 122.009 19.575 121.659 18.975C121.326 18.375 120.868 17.9083 120.284 17.575C119.718 17.225 119.059 17.05 118.309 17.05C117.559 17.05 116.893 17.225 116.309 17.575C115.726 17.9083 115.268 18.375 114.934 18.975C114.601 19.575 114.434 20.2583 114.434 21.025C114.434 21.8083 114.601 22.5083 114.934 23.125C115.268 23.725 115.726 24.2 116.309 24.55C116.893 24.9 117.559 25.075 118.309 25.075Z" fill="black"/>
</svg>
