<svg width="50" height="50" viewBox="0 0 50 50" fill="none" xmlns="http://www.w3.org/2000/svg">
<g clip-path="url(#clip0_3_78)">
<path d="M25.7319 26.2032C25.7313 26.2032 25.731 26.2032 25.7306 26.2032C22.9314 26.2025 20.6535 23.7813 20.6527 20.8061C20.652 18.0013 22.829 15.4109 25.7286 15.4109C28.5277 15.4116 30.8057 17.8328 30.8064 20.808C30.8072 23.6116 28.6311 26.2032 25.7319 26.2032ZM25.7273 17.1203C23.7637 17.1203 22.3616 18.9379 22.3621 20.8057C22.3626 22.8388 23.874 24.4933 25.731 24.4938C27.6951 24.4938 29.0976 22.6769 29.097 20.8084C29.0965 18.7753 27.5852 17.1208 25.7281 17.1203C25.7278 17.1203 25.7276 17.1203 25.7273 17.1203Z" fill="#CB927A"/>
<path d="M16.4015 23.1877C15.0465 23.1877 13.9442 22.0849 13.9442 20.7292C13.9442 19.3735 15.0466 18.2708 16.4015 18.2708C17.7564 18.2708 18.8587 19.3735 18.8587 20.7292C18.8587 22.0849 17.7564 23.1877 16.4015 23.1877ZM16.4015 19.9803C15.9891 19.9803 15.6536 20.3163 15.6536 20.7293C15.6536 21.1423 15.9892 21.4784 16.4015 21.4784C16.8138 21.4784 17.1493 21.1423 17.1493 20.7293C17.1493 20.3163 16.8139 19.9803 16.4015 19.9803Z" fill="#CB927A"/>
<path d="M35.2165 23.1665C33.8616 23.1665 32.7593 22.0637 32.7593 20.7081C32.7593 19.3524 33.8616 18.2495 35.2165 18.2495C36.5716 18.2495 37.6738 19.3524 37.6738 20.7081C37.6738 22.0637 36.5716 23.1665 35.2165 23.1665ZM35.2165 19.9589C34.8041 19.9589 34.4687 20.295 34.4687 20.7081C34.4687 21.1211 34.8041 21.4571 35.2165 21.4571C35.6289 21.4571 35.9644 21.1211 35.9644 20.7081C35.9644 20.295 35.6289 19.9589 35.2165 19.9589Z" fill="#CB927A"/>
<path d="M15.2781 31.2838L14.2685 31.2834C13.5667 27.7101 10.8483 24.8351 7.27117 24.0733L7.26989 20.4031C7.26978 19.9312 6.88709 19.5513 6.41519 19.5513C6.41508 19.5513 6.41497 19.5513 6.41487 19.5513C5.94286 19.5513 5.56027 19.9317 5.56049 20.4037L5.56465 32.1367C5.56476 32.6085 5.94724 33.0001 6.41903 33.0003L15.2775 33.0128H15.2778C15.7497 33.0128 16.1324 32.6205 16.1325 32.1486C16.1326 31.6766 15.7501 31.284 15.2781 31.2838ZM7.27181 25.8257C9.93036 26.5032 11.8798 28.6374 12.5179 31.2828L7.27373 31.2808L7.27181 25.8257Z" fill="#CB927A"/>
<path d="M46.1477 9.27581C46.1476 8.80401 45.7651 8.43468 45.2932 8.43457L20.9358 8.44013C20.9357 8.44013 20.9357 8.44013 20.9356 8.44013C20.4637 8.44013 20.081 8.80946 20.0809 9.28137C20.0808 9.75348 20.4633 10.1297 20.9354 10.1298L37.3892 10.1316C38.1519 13.6929 40.9849 16.3724 44.441 17.3474L44.4438 25.9549C44.4439 26.4268 44.8266 26.8161 45.2985 26.8161H45.2987C45.7707 26.8161 46.1533 26.426 46.1532 25.9539L46.1477 9.27581ZM39.1473 10.1289L44.4386 10.1306L44.4404 15.5604C41.9138 14.697 39.8341 12.7525 39.1473 10.1289Z" fill="#CB927A"/>
<path d="M50 31.6238C50 29.9716 48.6607 28.6323 47.0086 28.6323H20.8334C19.1812 28.6323 17.8419 29.9716 17.8419 31.6238V47.0084C17.8419 48.6605 19.1812 49.9998 20.8334 49.9998H47.0086C48.6607 49.9998 50 48.6605 50 47.0084V31.6238ZM20.8334 30.3417H47.0086C47.7155 30.3417 48.2906 30.9024 48.2906 31.6094V33.8674H19.5513V31.6094C19.5513 30.9024 20.1264 30.3417 20.8334 30.3417ZM47.0086 48.2904H20.8334C20.1264 48.2904 19.5513 47.7153 19.5513 47.0084V35.5768H48.2906V47.0084C48.2906 47.7153 47.7155 48.2904 47.0086 48.2904Z" fill="#CB927A"/>
<path d="M44.3332 40.3776H31.7308C31.2588 40.3776 30.8761 39.9949 30.8761 39.5229C30.8761 39.0509 31.2588 38.6682 31.7308 38.6682H44.3332C44.8052 38.6682 45.1879 39.0509 45.1879 39.5229C45.1879 39.9949 44.8053 40.3776 44.3332 40.3776Z" fill="#CB927A"/>
<path d="M44.3332 45.082H31.7308C31.2588 45.082 30.8761 44.6993 30.8761 44.2273C30.8761 43.7553 31.2588 43.3726 31.7308 43.3726H44.3332C44.8052 43.3726 45.1879 43.7553 45.1879 44.2273C45.1879 44.6993 44.8053 45.082 44.3332 45.082Z" fill="#CB927A"/>
<path d="M9.0812 18.1744C4.07382 18.1744 0 14.0979 0 9.08718C0 4.0765 4.07382 0 9.0812 0C14.0886 0 18.1624 4.0765 18.1624 9.08729C18.1624 14.0979 14.0886 18.1744 9.0812 18.1744ZM9.0812 1.7094C5.01635 1.7094 1.7094 5.01912 1.7094 9.08729C1.7094 13.1553 5.01635 16.4651 9.0812 16.4651C13.146 16.4651 16.453 13.1553 16.453 9.08729C16.453 5.01912 13.146 1.7094 9.0812 1.7094Z" fill="#CB927A"/>
<path d="M9.6451 8.14085C8.49958 7.66564 8.16828 7.38732 8.16828 6.90015C8.16828 6.49715 8.45802 6.06649 9.27138 6.06649C9.96518 6.11489 10.5946 6.31991 11.1594 6.68166L11.7399 5.14491C11.1845 4.79363 10.5693 4.57814 9.89424 4.49822V3.15527H8.37694V4.59395C7.11016 4.9072 6.3248 5.851 6.3248 7.06361C6.3248 8.56329 7.50396 9.23359 8.77768 9.73444C9.71892 10.1171 10.1028 10.4961 10.1028 11.0426C10.1028 11.639 9.58847 12.0397 8.82298 12.0397C8.01732 11.9881 7.3076 11.7317 6.69392 11.2702L6.13623 12.8314C6.74766 13.3006 7.46283 13.5649 8.28185 13.6246V15.0191H9.81273V13.5388C11.1183 13.212 11.9599 12.1978 11.9599 10.9472C11.9599 9.64374 11.2675 8.80442 9.6451 8.14085Z" fill="#CB927A"/>
<path d="M6.68569 40.5949C6.21369 40.5949 5.83099 40.2122 5.83099 39.7402V38.4531C5.83099 37.9811 6.21369 37.5984 6.68569 37.5984C7.1577 37.5984 7.5404 37.9811 7.5404 38.4531V39.7402C7.5404 40.2122 7.1577 40.5949 6.68569 40.5949Z" fill="#CB927A"/>
<path d="M6.68569 46.1504C6.21369 46.1504 5.83099 45.7677 5.83099 45.2957V44.0085C5.83099 43.5365 6.21369 43.1538 6.68569 43.1538C7.1577 43.1538 7.5404 43.5365 7.5404 44.0085V45.2957C7.5404 45.7677 7.1577 46.1504 6.68569 46.1504Z" fill="#CB927A"/>
<path d="M10.1165 42.7289H8.82577C8.35376 42.7289 7.97107 42.3462 7.97107 41.8742C7.97107 41.4022 8.35376 41.0195 8.82577 41.0195H10.1165C10.5885 41.0195 10.9712 41.4022 10.9712 41.8742C10.9712 42.3462 10.5885 42.7289 10.1165 42.7289Z" fill="#CB927A"/>
<path d="M4.54551 42.7289H3.25491C2.7829 42.7289 2.40021 42.3462 2.40021 41.8742C2.40021 41.4022 2.7829 41.0195 3.25491 41.0195H4.54561C5.01762 41.0195 5.40031 41.4022 5.40031 41.8742C5.40031 42.3462 5.01762 42.7289 4.54551 42.7289Z" fill="#CB927A"/>
</g>
<defs>
<clipPath id="clip0_3_78">
<rect width="50" height="50" fill="white"/>
</clipPath>
</defs>
</svg>
