<svg width="38" height="29" viewBox="0 0 38 29" fill="none" xmlns="http://www.w3.org/2000/svg">
<path d="M34.452 2.91462C36.5979 5.19379 37.75 7.75004 37.75 11.8938C37.75 19.1855 32.6312 25.7209 25.1875 28.9521L23.327 26.0813C30.275 22.323 31.6333 17.4459 32.175 14.3709C31.0562 14.95 29.5916 15.1521 28.1562 15.0188C24.3979 14.6709 21.4354 11.5855 21.4354 7.75004C21.4354 5.81617 22.2036 3.96151 23.5711 2.59405C24.9385 1.2266 26.7932 0.458374 28.727 0.458374C30.9625 0.458374 33.1 1.47921 34.452 2.91462ZM13.6187 2.91462C15.7645 5.19379 16.9166 7.75004 16.9166 11.8938C16.9166 19.1855 11.7979 25.7209 4.35413 28.9521L2.49371 26.0813C9.44163 22.323 10.8 17.4459 11.3416 14.3709C10.2229 14.95 8.75829 15.1521 7.32288 15.0188C3.56454 14.6709 0.604126 11.5855 0.604126 7.75004C0.604126 5.81617 1.37235 3.96151 2.7398 2.59405C4.10726 1.2266 5.96192 0.458374 7.89579 0.458374C10.1312 0.458374 12.2687 1.47921 13.6208 2.91462H13.6187Z" fill="#CB927A"/>
</svg>
