<svg width="50" height="50" viewBox="0 0 50 50" fill="none" xmlns="http://www.w3.org/2000/svg">
<g clip-path="url(#clip0_116_7199)">
<path d="M5.99219 29.2932H6.77285C7.31221 29.2932 7.74941 28.8559 7.74941 28.3167C7.74941 27.7774 7.31221 27.3401 6.77285 27.3401H5.99219C5.45283 27.3401 5.01562 27.7774 5.01562 28.3167C5.01562 28.8559 5.45283 29.2932 5.99219 29.2932Z" fill="#CB927A"/>
<path d="M16.6035 29.2932C17.1429 29.2932 17.5801 28.8559 17.5801 28.3167C17.5801 27.7774 17.1429 27.3401 16.6035 27.3401H10.6797C10.1403 27.3401 9.70312 27.7774 9.70312 28.3167C9.70312 28.8559 10.1403 29.2932 10.6797 29.2932H16.6035Z" fill="#CB927A"/>
<path d="M5.99219 33.9287H16.6053C17.1446 33.9287 17.5818 33.4914 17.5818 32.9521C17.5818 32.4129 17.1446 31.9756 16.6053 31.9756H5.99219C5.45283 31.9756 5.01562 32.4129 5.01562 32.9521C5.01562 33.4914 5.45283 33.9287 5.99219 33.9287Z" fill="#CB927A"/>
<path d="M38.3516 20.1902V3.81143C38.3516 2.05977 36.925 0.634766 35.1716 0.634766H3.17725C1.42529 0.634766 0 2.05986 0 3.81143V15.4206C0 15.9599 0.437207 16.3972 0.976562 16.3972C1.51592 16.3972 1.95312 15.9599 1.95312 15.4206V3.81143C1.95312 3.13672 2.50225 2.58789 3.17725 2.58789H12.2353V15.2546C12.2353 15.6085 12.4268 15.9348 12.7357 16.1072C13.0447 16.2797 13.4229 16.2717 13.7242 16.0858L19.1744 12.7267L24.6246 16.0858C25.2646 16.4804 26.1136 16.0028 26.1136 15.2545V2.58789H35.1716C35.848 2.58789 36.3984 3.13672 36.3984 3.81143V19.9049C36.0173 19.8753 35.6321 19.8599 35.2436 19.8599C27.1068 19.8599 20.4871 26.4779 20.4871 34.6125C20.4871 35.4334 20.5557 36.2385 20.6853 37.0232H3.17725C2.50225 37.0232 1.95312 36.4731 1.95312 35.797V24.1878C1.95312 23.6485 1.51592 23.2112 0.976562 23.2112C0.437207 23.2112 0 23.6485 0 24.1878V35.7971C0 37.5502 1.42529 38.9765 3.17725 38.9765H21.1462C23.0117 44.9873 28.6258 49.3652 35.2436 49.3652C43.3803 49.3652 50 42.7472 50 34.6126C50 27.5437 45.0008 21.621 38.3516 20.1902ZM24.1604 13.5056L19.6868 10.7482C19.3727 10.5547 18.9762 10.5547 18.662 10.7482L14.1884 13.5056V2.58789H24.1604V13.5056ZM35.2436 47.4121C28.1838 47.4121 22.4402 41.6702 22.4402 34.6126C22.4402 27.555 28.1838 21.8131 35.2436 21.8131C42.3033 21.8131 48.0469 27.5549 48.0469 34.6126C48.0469 41.6703 42.3033 47.4121 35.2436 47.4121Z" fill="#CB927A"/>
<path d="M37.0219 28.9563H33.2914L35.0325 27.2171C35.4141 26.836 35.4145 26.2176 35.0333 25.836C34.6521 25.4543 34.0339 25.4541 33.6522 25.8352L30.2418 29.2418C29.8653 29.615 29.8653 30.2506 30.2418 30.6237L33.6522 34.0304C33.8429 34.2208 34.0926 34.316 34.3423 34.316C34.5924 34.316 34.8425 34.2205 35.0332 34.0296C35.4144 33.6481 35.4141 33.0297 35.0325 32.6485L33.2914 30.9092H37.022C39.3851 30.9092 41.3076 32.8312 41.3076 35.1935C41.3076 37.5573 39.3851 39.4805 37.022 39.4805H28.2109C27.6716 39.4805 27.2344 39.9178 27.2344 40.4571C27.2344 40.9963 27.6716 41.4336 28.2109 41.4336H37.022C40.4621 41.4336 43.2607 38.6343 43.2607 35.1935C43.2606 31.7543 40.462 28.9563 37.0219 28.9563Z" fill="#CB927A"/>
<path d="M0.976562 20.7835C1.51592 20.7835 1.95312 20.3435 1.95312 19.8042C1.95312 19.2649 1.51592 18.8276 0.976562 18.8276C0.437207 18.8276 0 19.2649 0 19.8042V19.8098C0 20.349 0.437207 20.7835 0.976562 20.7835Z" fill="#CB927A"/>
</g>
<defs>
<clipPath id="clip0_116_7199">
<rect width="50" height="50" fill="white"/>
</clipPath>
</defs>
</svg>
