<svg width="20" height="20" viewBox="0 0 20 20" fill="none" xmlns="http://www.w3.org/2000/svg">
<path fill-rule="evenodd" clip-rule="evenodd" d="M9.02113 0.675049C7.66572 0.675164 6.32999 0.999413 5.12538 1.62074C3.92078 2.24207 2.88222 3.14247 2.09636 4.2468C1.31051 5.35114 0.800137 6.6274 0.607836 7.96909C0.415534 9.31079 0.546877 10.679 0.990906 11.9596C1.43493 13.2402 2.17877 14.3961 3.16036 15.3308C4.14196 16.2654 5.33283 16.9518 6.63364 17.3326C7.93445 17.7135 9.30747 17.7777 10.6381 17.52C11.9688 17.2622 13.2186 16.69 14.2831 15.851L17.9351 19.503C18.1237 19.6852 18.3763 19.786 18.6385 19.7837C18.9007 19.7814 19.1515 19.6763 19.3369 19.4909C19.5224 19.3055 19.6275 19.0546 19.6298 18.7924C19.6321 18.5303 19.5313 18.2777 19.3491 18.089L15.6971 14.437C16.6851 13.1837 17.3003 11.6775 17.4722 10.0908C17.6442 8.5041 17.3659 6.90107 16.6694 5.46514C15.9728 4.02922 14.886 2.8184 13.5334 1.97128C12.1808 1.12416 10.6171 0.674942 9.02113 0.675049ZM2.52113 9.17505C2.52113 7.45114 3.20595 5.79784 4.42493 4.57885C5.64392 3.35987 7.29722 2.67505 9.02113 2.67505C10.745 2.67505 12.3983 3.35987 13.6173 4.57885C14.8363 5.79784 15.5211 7.45114 15.5211 9.17505C15.5211 10.899 14.8363 12.5523 13.6173 13.7712C12.3983 14.9902 10.745 15.675 9.02113 15.675C7.29722 15.675 5.64392 14.9902 4.42493 13.7712C3.20595 12.5523 2.52113 10.899 2.52113 9.17505Z" fill="#2A2826"/>
</svg>
