<svg width="25" height="25" viewBox="0 0 25 25" fill="none" xmlns="http://www.w3.org/2000/svg">
<path d="M19.666 7.40796H16.666V6.40796C16.666 5.34709 16.2446 4.32968 15.4944 3.57953C14.7443 2.82939 13.7269 2.40796 12.666 2.40796C11.6051 2.40796 10.5877 2.82939 9.83759 3.57953C9.08744 4.32968 8.66602 5.34709 8.66602 6.40796V7.40796H5.66602C5.4008 7.40796 5.14645 7.51332 4.95891 7.70085C4.77137 7.88839 4.66602 8.14274 4.66602 8.40796V19.408C4.66602 20.2036 4.98209 20.9667 5.5447 21.5293C6.1073 22.0919 6.87037 22.408 7.66602 22.408H17.666C18.4617 22.408 19.2247 22.0919 19.7873 21.5293C20.3499 20.9667 20.666 20.2036 20.666 19.408V8.40796C20.666 8.14274 20.5607 7.88839 20.3731 7.70085C20.1856 7.51332 19.9312 7.40796 19.666 7.40796ZM10.666 6.40796C10.666 5.87753 10.8767 5.36882 11.2518 4.99375C11.6269 4.61867 12.1356 4.40796 12.666 4.40796C13.1964 4.40796 13.7052 4.61867 14.0802 4.99375C14.4553 5.36882 14.666 5.87753 14.666 6.40796V7.40796H10.666V6.40796ZM18.666 19.408C18.666 19.6732 18.5607 19.9275 18.3731 20.1151C18.1856 20.3026 17.9312 20.408 17.666 20.408H7.66602C7.4008 20.408 7.14645 20.3026 6.95891 20.1151C6.77137 19.9275 6.66602 19.6732 6.66602 19.408V9.40796H8.66602V10.408C8.66602 10.6732 8.77137 10.9275 8.95891 11.1151C9.14645 11.3026 9.4008 11.408 9.66602 11.408C9.93123 11.408 10.1856 11.3026 10.3731 11.1151C10.5607 10.9275 10.666 10.6732 10.666 10.408V9.40796H14.666V10.408C14.666 10.6732 14.7714 10.9275 14.9589 11.1151C15.1464 11.3026 15.4008 11.408 15.666 11.408C15.9312 11.408 16.1856 11.3026 16.3731 11.1151C16.5607 10.9275 16.666 10.6732 16.666 10.408V9.40796H18.666V19.408Z" fill="#CB927A"/>
</svg>
