<svg width="50" height="50" viewBox="0 0 50 50" fill="none" xmlns="http://www.w3.org/2000/svg">
<g clip-path="url(#clip0_3_140)">
<path d="M23.6321 23.4289V24.4817H26.5711C27.0314 24.4817 27.4045 24.8548 27.4045 25.3151C27.4045 25.7753 27.0314 26.1484 26.5711 26.1484H22.7987C22.3385 26.1484 21.9654 25.7753 21.9654 25.3151V23.4289C21.9654 21.9293 23.1854 20.7094 24.6849 20.7094C25.2654 20.7094 25.7377 20.2371 25.7377 19.6566C25.7377 19.0761 25.2654 18.6038 24.6849 18.6038H22.7987C22.3385 18.6038 21.9654 18.2307 21.9654 17.7705C21.9654 17.3102 22.3385 16.9371 22.7987 16.9371H24.6849C26.1845 16.9371 27.4044 18.1571 27.4044 19.6566C27.4044 21.1561 26.1844 22.3761 24.6849 22.3761C24.1044 22.3761 23.6321 22.8484 23.6321 23.4289ZM34.1157 26.1484C34.576 26.1484 34.9491 25.7753 34.9491 25.3151V17.7703C34.9491 17.3101 34.576 16.937 34.1157 16.937C33.6555 16.937 33.2824 17.3101 33.2824 17.7703V20.7093H31.1768V17.7703C31.1768 17.3101 30.8037 16.937 30.3434 16.937C29.8832 16.937 29.5101 17.3101 29.5101 17.7703V21.5427C29.5101 22.0029 29.8832 22.376 30.3434 22.376H33.2824V25.3151C33.2824 25.7754 33.6555 26.1484 34.1157 26.1484ZM50 21.8171C50 9.7871 40.2129 0 28.1828 0C23.0247 0 18.0197 1.83334 14.0895 5.1623C13.7383 5.4597 13.6948 5.98564 13.9922 6.33678C14.2895 6.68804 14.8154 6.73158 15.1666 6.43408C18.7962 3.3598 23.4188 1.66667 28.1828 1.66667C39.2939 1.66667 48.3333 10.7061 48.3333 21.8171C48.3333 28.7371 44.8454 35.0931 39.0029 38.8192C38.5037 39.1377 38.4874 39.8614 38.9697 40.2025C38.9958 40.2384 39.024 40.2733 39.0565 40.3058C40.9499 42.1992 40.4198 45.3938 38.017 46.5498C31.1026 49.8763 22.8097 48.4636 17.381 43.035L6.96507 32.6188C1.5363 27.1901 0.123801 18.8971 3.45016 11.9828C4.6061 9.58002 7.80121 9.05033 9.69413 10.9434L13.6252 14.8744C14.7877 16.037 15.0844 17.8332 14.3634 19.344C12.4688 23.3141 13.2866 28.0722 16.3985 31.1841L18.8157 33.6013C21.9334 36.719 26.6933 37.5286 30.657 35.6362C32.1672 34.9155 33.9628 35.2121 35.1255 36.3749C35.4511 36.7003 35.9786 36.7003 36.3041 36.3749C36.6295 36.0494 36.6295 35.5218 36.3041 35.1964C34.643 33.5354 32.0852 33.1076 29.939 34.1323C26.6047 35.7239 22.6084 35.0371 19.9943 32.4229L17.5771 30.0057C14.9634 27.392 14.2763 23.396 15.8675 20.0618C16.564 18.6022 16.5887 16.9526 16.0115 15.524C18.3522 11.0174 23.0848 8.12502 28.1771 8.12502C39.4183 8.12502 45.8445 20.9807 39.1944 29.9642C38.7859 30.5161 39.1854 31.2934 39.8635 31.2934C40.1187 31.2934 40.3704 31.1766 40.534 30.9558C48.0091 20.8581 40.766 6.45835 28.1771 6.45835C22.6736 6.45835 17.7382 9.36835 15.006 13.9108C14.8489 13.7358 15.1834 14.0756 10.8728 9.76492C8.20986 7.1021 3.62485 7.77564 1.94828 11.2602C-1.68464 18.8117 -0.142033 27.8687 5.78652 33.7973L16.2027 44.2134C22.1309 50.1417 31.1875 51.685 38.7397 48.0517C41.9653 46.4999 42.8171 42.4204 40.7141 39.6759C46.5459 35.5843 50 28.981 50 21.8171Z" fill="#CB927A"/>
</g>
<defs>
<clipPath id="clip0_3_140">
<rect width="50" height="50" fill="white"/>
</clipPath>
</defs>
</svg>
