<svg width="13" height="12" viewBox="0 0 13 12" fill="none" xmlns="http://www.w3.org/2000/svg">
<path d="M6.97632 1.425C7.18315 1.425 7.38796 1.46574 7.57904 1.54489C7.77013 1.62404 7.94376 1.74005 8.09001 1.88631C8.23626 2.03256 8.35228 2.20619 8.43143 2.39727C8.51058 2.58836 8.55132 2.79317 8.55132 3C8.55132 3.20683 8.51058 3.41164 8.43143 3.60273C8.35228 3.79381 8.23626 3.96744 8.09001 4.11369C7.94376 4.25994 7.77013 4.37596 7.57904 4.45511C7.38796 4.53426 7.18315 4.575 6.97632 4.575C6.5586 4.575 6.15799 4.40906 5.86262 4.11369C5.56725 3.81832 5.40132 3.41772 5.40132 3C5.40132 2.58228 5.56725 2.18168 5.86262 1.88631C6.15799 1.59094 6.5586 1.425 6.97632 1.425ZM6.97632 8.175C9.20382 8.175 11.5513 9.27 11.5513 9.75V10.575H2.40132V9.75C2.40132 9.27 4.74882 8.175 6.97632 8.175ZM6.97632 0C5.31882 0 3.97632 1.3425 3.97632 3C3.97632 4.6575 5.31882 6 6.97632 6C8.63382 6 9.97632 4.6575 9.97632 3C9.97632 1.3425 8.63382 0 6.97632 0ZM6.97632 6.75C4.97382 6.75 0.976318 7.755 0.976318 9.75V11.25C0.976318 11.6625 1.31382 12 1.72632 12H12.2263C12.6388 12 12.9763 11.6625 12.9763 11.25V9.75C12.9763 7.755 8.97882 6.75 6.97632 6.75Z" fill="white"/>
</svg>
